# xmcd
#
# Track frame offsets: 
#        150
#        13560
#        27540
#        42137
#        60815
#        74012
#        84115
#        96292
#        108220
#        123435
#        133032
#        143667
#        155937
#        167150
#        182437
#
# Disc length: 2611 seconds
#
# Revision: 6
# Processed by: cddbd v1.5.2PL0 Copyright (c) Steve Scherf et al.
# Submitted via: ExactAudioCopy v0.99pb5
#
DISCID=c20a310f
DTITLE=Various Artist - Classic Country - TL 626-13 - '70s Legends - CD 1
DYEAR=2000
DGENRE=Country
TTITLE0=Glen Campbell - Honey come back
TTITLE1=Dolly Parton - Coat of many colors
TTITLE2=Don Williams - Tulsa time
TTITLE3=Johnny Cash - Sunday morning coming down
TTITLE4=Tammy Wynette - Kids say the darndest things
TTITLE5=Charley Pride - Is anybody goin' to San Antone
TTITLE6=Loretta Lynn and Conway Twitty - As soon as I hang up the phone
TTITLE7=Johnny Paycheck - Take this job and shove it
TTITLE8=Jessi Colter - I'm not Lisa
TTITLE9=Tom T. Hall - I love
TTITLE10=Barbara Mandrell - Sleeping single in a double bed
TTITLE11=Charlie Rich - Rollin' with the flow
TTITLE12=Freddie Hart - Easy loving
TTITLE13=Jeanne Pruett - Satin sheets
TTITLE14=Waylon Jennings and Willie Nelson - Good hearted woman
EXTD=
EXTT0=
EXTT1=
EXTT2=
EXTT3=
EXTT4=
EXTT5=
EXTT6=
EXTT7=
EXTT8=
EXTT9=
EXTT10=
EXTT11=
EXTT12=
EXTT13=
EXTT14=
PLAYORDER=
